<svg width="33" height="33" viewBox="0 0 33 33" fill="none" xmlns="http://www.w3.org/2000/svg">
<path fill-rule="evenodd" clip-rule="evenodd" d="M2.18565 5.06899C1.3248 4.20814 1.32487 2.81243 2.18565 1.95164C3.04643 1.09086 4.44215 1.09079 5.303 1.95164L16.234 12.8827L27.165 1.95164C28.0258 1.09086 29.4215 1.09079 30.2824 1.95164C31.1432 2.8125 31.1432 4.20821 30.2824 5.069L19.3514 16L30.2824 26.931C31.1432 27.7919 31.1431 29.1876 30.2824 30.0484C29.4216 30.9091 28.0259 30.9092 27.165 30.0484L16.234 19.1174L5.303 30.0484C4.44222 30.9091 3.04651 30.9092 2.18565 30.0484C1.3248 29.1875 1.32487 27.7918 2.18565 26.931L13.1167 16L2.18565 5.06899Z" fill="#2B2118"/>
</svg>
