<svg width="130" height="130" viewBox="0 0 130 130" fill="none" xmlns="http://www.w3.org/2000/svg">
<path d="M104.162 24.9267C103.444 15.1758 93.1278 9.21961 84.3244 13.4735C76.5307 17.2396 70.3905 23.7378 67.0706 31.7333L65.138 36.3879C64.2603 38.5017 62.0594 39.7497 59.7949 39.4176L20.7915 33.6989C16.4008 33.0551 12.0608 35.1567 9.84101 39.0015L5.97696 45.6942C5.62612 46.3019 5.90577 47.0789 6.5632 47.3232L48.5084 62.9062C51.1665 63.8938 52.4723 66.8918 51.3849 69.5106L45.8994 82.7219C45.1674 84.4849 43.4953 85.6773 41.59 85.795L32.8815 86.3331C29.2569 86.557 25.9852 88.5835 24.1688 91.7296L22.5299 94.5683C22.154 95.2193 22.5041 96.0491 23.2326 96.2335L37.6031 99.8711C40.5037 100.605 42.1144 103.706 41.0474 106.501L40.6396 107.57C39.7209 109.977 42.8896 111.806 44.5148 109.807L45.2361 108.92C47.1235 106.598 50.6139 106.442 52.7001 108.587L63.0356 119.214C63.5595 119.752 64.4532 119.641 64.8291 118.99L66.468 116.151C68.2844 113.005 68.4035 109.158 66.7852 105.907L62.8969 98.0965C62.0462 96.3876 62.2428 94.3434 63.4036 92.8279L72.1021 81.4717C73.8264 79.2206 77.0757 78.8524 79.2599 80.6606L113.728 109.195C114.268 109.642 115.081 109.496 115.432 108.888L119.296 102.195C121.516 98.3504 121.166 93.541 118.413 90.0605L93.9585 59.142C92.5386 57.3469 92.519 54.8168 93.9107 52.9999L96.9754 48.9988C102.24 42.126 104.797 33.5593 104.162 24.9267Z" stroke="#2B2118" stroke-width="4"/>
</svg>
