<svg width="130" height="130" viewBox="0 0 130 130" fill="none" xmlns="http://www.w3.org/2000/svg">
<path d="M46 58C46 55.2386 43.7614 53 41 53H20C17.2386 53 15 55.2386 15 58V117C15 119.761 17.2386 122 20 122H41C43.7614 122 46 119.761 46 117V58Z" stroke="#2B2118" stroke-width="4"/>
<path d="M50.5324 113.928C47.7668 113.928 45.5265 111.682 45.5324 108.917L45.6486 54.0647C45.6501 53.3835 45.7852 52.7222 46.0599 52.0988C48.4553 46.6621 60.7913 19.0694 67.5583 11.832C71.8539 7.30151 76.4077 6.98261 79.6295 9.85404C85.1846 14.7439 79.7302 29.282 77.3335 46.5174C77.2898 46.8316 77.1784 47.1468 77.2023 47.4631C77.3989 50.0758 87.668 49.7138 90.7988 49.7138H103.492C105.069 49.6825 106.635 49.9643 108.1 50.5422C109.565 51.12 110.899 51.9825 112.021 53.0788C113.144 54.1749 114.035 55.483 114.639 56.9251C115.244 58.3673 115.551 59.9147 115.542 61.4762C115.542 68.0478 107.2 104.494 107.144 104.738C107.142 104.746 107.143 104.743 107.141 104.751C106.522 107.385 105.012 109.731 102.863 111.4C100.71 113.072 98.0439 113.963 95.3084 113.928H50.5324Z" stroke="#2B2118" stroke-width="4"/>
</svg>
