<svg width="130" height="130" viewBox="0 0 130 130" fill="none" xmlns="http://www.w3.org/2000/svg">
<path d="M45.325 110.925L47.7651 113.365C49.7178 115.318 52.8836 115.318 54.8362 113.365L57.2764 110.925" stroke="#2B2118" stroke-width="4" stroke-linecap="round"/>
<path d="M68.6311 110.925L71.0713 113.365C73.0239 115.318 76.1897 115.318 78.1424 113.365L80.5825 110.925" stroke="#2B2118" stroke-width="4" stroke-linecap="round"/>
<path d="M44.325 72.3611L46.7651 74.8013C48.7178 76.7539 51.8836 76.7539 53.8362 74.8013L56.2764 72.3611" stroke="#2B2118" stroke-width="4" stroke-linecap="round"/>
<path d="M69.6311 72.3611L72.0713 74.8013C74.0239 76.7539 77.1897 76.7539 79.1424 74.8013L81.5825 72.3611" stroke="#2B2118" stroke-width="4" stroke-linecap="round"/>
<path d="M35.2928 91.377L37.733 93.8171C39.6857 95.7698 42.8515 95.7698 44.8041 93.8171L47.2443 91.377" stroke="#2B2118" stroke-width="4" stroke-linecap="round"/>
<path d="M77.7438 91.377L80.184 93.8171C82.1366 95.7698 85.3025 95.7698 87.2551 93.8171L89.6953 91.377" stroke="#2B2118" stroke-width="4" stroke-linecap="round"/>
<path d="M56.5184 91.3768L58.9586 93.817C60.9112 95.7696 64.077 95.7696 66.0296 93.817L68.4698 91.3768" stroke="#2B2118" stroke-width="4" stroke-linecap="round"/>
<path d="M56.5184 54.3611L58.9586 56.8013C60.9112 58.7539 64.077 58.7539 66.0296 56.8013L68.4698 54.3611" stroke="#2B2118" stroke-width="4" stroke-linecap="round"/>
<path d="M97.9981 90.8523C97.9981 115.366 86.8237 126.361 62.9991 126.361C39.1744 126.361 28 115.366 28 90.8523C28 78.6054 29.5649 62.2733 37.3602 53.0331C45.1682 43.7778 51.0771 43.2383 62.9991 43.2383C75.2177 43.2383 82.1801 44.0896 90.029 53.7295C97.4844 62.8862 97.9981 78.9106 97.9981 90.8523Z" stroke="#2B2118" stroke-width="4"/>
<path d="M80.4985 45.4257C81.7138 43.1167 83.1758 38.1756 87.4254 33.3948C91.5205 28.7878 96.1547 26.9359 99.4358 25.947C100.904 25.5046 101.165 23.9252 99.7307 23.3839C94.6354 21.4611 84.5421 20.3253 74.3008 28.2908C63.7081 36.5295 63.1205 42.6306 61.9053 43.2382" stroke="#2B2118" stroke-width="4" stroke-linecap="round"/>
<path d="M53.2272 27.1971C53.2272 27.1971 52.3473 20.2898 48.7807 15.5307C45.2452 10.8133 40.5181 8.83638 37.3575 7.78307C36.0186 7.33684 35.7398 5.8746 37.0428 5.33248C41.1706 3.61516 49.3168 2.8643 58.4289 10.1403C68.8322 18.4473 71.0934 28.7797 72.1134 29.3845" stroke="#2B2118" stroke-width="4" stroke-linecap="round"/>
<path d="M50.9682 43.6028C50.9682 43.6028 52.4264 39.9571 46.2287 34.8531C42.3527 31.6612 36.1778 30.5088 32.1924 29.8662C30.6594 29.619 30.4049 28.1973 31.8494 27.6275C37.3336 25.4641 48.4181 23.1148 56.0721 29.2357C64.5128 35.9858 63.7282 39.228 63.7282 39.228" stroke="#2B2118" stroke-width="4" stroke-linecap="round"/>
<path d="M78.0174 25.7388C78.0174 25.7388 77.8886 22.2811 83.0505 16.989C85.6461 14.328 88.7357 12.4433 91.6554 11.4647C93.4849 10.8515 94.3633 8.28298 92.5756 7.55672C88.3089 5.82335 81.7285 5.19836 73.7665 10.8423C65.6735 16.5789 66.2802 18.4473 66.2802 18.4473" stroke="#2B2118" stroke-width="4" stroke-linecap="round"/>
</svg>
