<svg width="35" height="35" viewBox="0 0 35 35" fill="none" xmlns="http://www.w3.org/2000/svg">
<g clip-path="url(#clip0_111_30)">
<path d="M0 16.8C0 8.88038 0 4.92061 2.4603 2.4603C4.92061 0 8.88038 0 16.8 0H18.2C26.1196 0 30.0794 0 32.5397 2.4603C35 4.92061 35 8.88038 35 16.8V18.2C35 26.1196 35 30.0794 32.5397 32.5397C30.0794 35 26.1196 35 18.2 35H16.8C8.88038 35 4.92061 35 2.4603 32.5397C0 30.0794 0 26.1196 0 18.2L0 16.8Z" fill="#0077FF"/>
<path d="M18.6229 25.2147C10.6458 25.2147 6.09589 19.7459 5.90631 10.6459H9.90214C10.0334 17.3251 12.9792 20.1542 15.3125 20.7376V10.6459H19.0751V16.4063C21.3793 16.1584 23.7998 13.5334 24.6165 10.6459H28.3791C27.752 14.2042 25.127 16.8292 23.2603 17.9084C25.127 18.7834 28.1167 21.073 29.2542 25.2147H25.1124C24.2228 22.4438 22.0064 20.3001 19.0751 20.0084V25.2147H18.6229Z" fill="white"/>
</g>
<defs>
<clipPath id="clip0_111_30">
<rect width="35" height="35" fill="white"/>
</clipPath>
</defs>
</svg>
