<svg width="100" height="100" viewBox="0 0 100 100" fill="none" xmlns="http://www.w3.org/2000/svg">
<g clip-path="url(#clip0_131_2840)">
<path d="M83.479 0H16.521C7.39669 0 0 7.39669 0 16.521V83.479C0 92.6033 7.39669 100 16.521 100H83.479C92.6033 100 100 92.6033 100 83.479V16.521C100 7.39669 92.6033 0 83.479 0Z" fill="url(#paint0_linear_131_2840)"/>
<path fill-rule="evenodd" clip-rule="evenodd" d="M80 49.2278C80 65.3665 66.8138 78.4525 50.5475 78.4525C45.3829 78.4525 40.5289 77.1342 36.3085 74.8175L20 80L25.3155 64.3198C22.6336 59.9155 21.089 54.7481 21.089 49.2278C21.089 33.086 34.2752 20 50.5445 20C66.8138 20 79.997 33.086 79.997 49.2278H80ZM50.5475 24.6546C36.8907 24.6546 25.7831 35.6742 25.7831 49.2278C25.7831 54.6003 27.5328 59.5807 30.4983 63.635L27.4061 72.7602L36.9209 69.7376C40.8306 72.3017 45.5156 73.8009 50.5475 73.8009C64.2013 73.8009 75.309 62.7783 75.309 49.2308C75.309 35.6833 64.1983 24.6576 50.5475 24.6576V24.6546ZM65.4201 55.9578C65.2391 55.6591 64.7564 55.4781 64.0354 55.1222C63.3144 54.7632 59.7607 53.0287 59.1 52.7934C58.4393 52.5551 57.9536 52.4344 57.477 53.1493C56.9943 53.8673 55.6126 55.4811 55.1873 55.9578C54.768 56.4374 54.3486 56.4947 53.6246 56.1357C52.9006 55.7798 50.5747 55.0196 47.8174 52.5822C45.6725 50.6818 44.2244 48.3379 43.7991 47.6199C43.3798 46.905 43.7568 46.5158 44.1158 46.1599C44.4417 45.8371 44.8399 45.3243 45.1989 44.908C45.5609 44.4887 45.6815 44.187 45.9199 43.7104C46.1612 43.2308 46.0405 42.8145 45.8595 42.4585C45.6815 42.0995 44.2365 38.5762 43.6332 37.1403C43.0358 35.7074 42.4325 35.7617 42.0102 35.7617C41.5878 35.7617 40.8095 35.8854 40.8095 35.8854C40.8095 35.8854 39.3615 36.0633 38.7008 36.7813C38.0401 37.4962 36.1758 39.2308 36.1758 42.7541C36.1758 46.2775 38.7611 49.6863 39.1201 50.1629C39.4821 50.6425 44.1128 58.1116 51.4556 60.9804C58.7953 63.8492 58.7953 62.8899 60.1197 62.7692C61.441 62.6516 64.3914 61.0377 64.9917 59.3635C65.5951 57.6893 65.5951 56.2564 65.4141 55.9578H65.4201Z" fill="white"/>
</g>
<defs>
<linearGradient id="paint0_linear_131_2840" x1="49.9983" y1="0" x2="49.9983" y2="100" gradientUnits="userSpaceOnUse">
<stop stop-color="#4AC14B"/>
<stop offset="1" stop-color="#06853A"/>
</linearGradient>
<clipPath id="clip0_131_2840">
<rect width="100" height="100" rx="50" fill="white"/>
</clipPath>
</defs>
</svg>
